<svg width="100" height="100" viewBox="0 0 100 100" fill="none" xmlns="http://www.w3.org/2000/svg">
<path d="M71.9243 62.9242C71.4074 64.0059 70.9174 65.0511 70.4163 66.0912C70.2269 66.4842 70.0043 66.8616 69.81 67.2524C68.9922 68.898 68.1736 70.5432 67.3667 72.1939C66.859 73.2324 66.3805 74.2846 65.873 75.3233C65.0608 76.9857 64.2443 78.6464 63.4129 80.2997C62.7059 81.7057 61.9646 83.0952 61.2593 84.502C60.8991 85.2206 60.598 85.9674 60.2452 86.6898C59.927 87.3416 59.6483 88.0874 58.7969 88.2039C58.2733 88.2756 57.7169 88.2129 57.1877 88.132C55.848 87.9273 54.515 87.6806 53.1801 87.4463C51.8823 87.2184 50.5847 86.9891 49.2884 86.7529C47.6596 86.4563 46.0319 86.1537 44.4043 85.8505C43.126 85.6125 41.8497 85.3646 40.5708 85.1303C38.9529 84.8339 37.3311 84.5581 35.7153 84.2517C34.667 84.0528 33.6292 83.8012 32.5814 83.5997C31.8399 83.4571 31.0887 83.3637 30.3434 83.2392C29.4621 83.0919 28.5819 82.9379 27.7023 82.781C26.4462 82.5571 25.1917 82.3239 23.9352 82.1021C22.6183 81.8696 21.2981 81.6547 19.9824 81.4159C18.5308 81.1525 17.0826 80.8709 15.6331 80.5966C14.7306 80.4259 14.2709 79.8577 14.0691 79.0055C13.622 77.1174 13.159 75.2325 12.6749 73.3531C12.4043 72.3028 12.0504 71.2728 11.7954 70.2194C11.7237 69.9236 11.7813 69.5307 11.9299 69.262C12.7667 67.7486 13.6658 66.2684 14.5118 64.7597C15.3908 63.1923 16.2252 61.6009 17.0945 60.0282C17.8236 58.7092 18.5863 57.408 19.3138 56.0882C20.3646 54.182 21.3792 52.2566 22.4427 50.3573C23.401 48.6457 24.4122 46.9625 25.3845 45.2582C25.8482 44.4454 26.2691 43.6092 26.7213 42.79C27.3978 41.5644 28.0895 40.347 28.7658 39.1214C29.3053 38.1437 29.8216 37.1538 30.3655 36.1785C31.476 34.1874 32.6051 32.2063 33.7122 30.2134C34.2103 29.3167 34.6586 28.3934 35.1579 27.4973C35.5303 26.829 35.9337 26.1761 36.3509 25.5335C36.6359 25.0945 37.1121 25.0543 37.5781 25.1207C38.4896 25.2504 39.3928 25.4404 40.3067 25.5433C40.4892 25.5639 40.7887 25.352 40.8901 25.1701C41.4208 24.2179 41.9065 23.2415 42.4051 22.2722C42.8551 21.3973 43.3121 20.5256 43.7463 19.6433C44.143 18.837 44.8804 18.9466 45.5735 18.9815C45.9664 19.0012 46.3527 19.126 46.7449 19.1852C48.3086 19.4213 49.8725 19.6564 51.4382 19.8796C52.5783 20.0421 53.7255 20.1602 54.8619 20.3433C56.3786 20.5877 57.8839 20.9003 59.4015 21.1387C61.0148 21.3922 62.6397 21.5746 64.254 21.823C65.5305 22.0194 66.7972 22.2763 68.071 22.4911C68.6478 22.5884 69.2318 22.6445 69.8114 22.7272C70.8682 22.8778 71.925 23.0286 72.9801 23.1898C74.3739 23.4029 75.7653 23.6314 77.1608 23.8327C77.2526 23.8459 77.4161 23.7071 77.4695 23.6017C78.215 22.1295 78.9425 20.6484 79.6859 19.1751C79.854 18.8421 80.0486 18.5189 80.2611 18.2111C80.971 17.1829 81.084 15.9775 81.2916 14.8111C81.4945 13.6711 82.0793 12.8009 83.0088 12.1421C83.6759 11.6692 84.4483 11.6828 85.1734 11.9514C85.7886 12.1793 86.0828 12.7039 86.1905 13.3561C86.409 14.6792 85.7806 15.7449 84.9758 16.6312C83.8865 17.8307 82.8993 19.0591 82.2287 20.5327C81.7816 21.5154 81.2545 22.4631 80.7637 23.4268C80.6314 23.6864 80.501 23.9471 80.3382 24.2699C80.5399 24.3273 80.7208 24.3942 80.9079 24.4292C81.7161 24.5804 82.5246 24.7314 83.3361 24.8645C83.9306 24.962 84.533 25.0145 85.1261 25.1186C85.7379 25.2259 86.1444 25.756 86.186 26.3795C86.2581 27.4608 86.3582 28.5403 86.4389 29.6211C86.5067 30.53 86.5635 31.4397 86.6258 32.349C86.6325 32.4464 86.6223 32.5514 86.6563 32.6394C86.8347 33.1019 86.7896 33.5108 86.5454 33.9669C85.7145 35.519 84.9468 37.1035 84.1336 38.6649C83.1097 40.6309 82.0372 42.573 81.0373 44.5505C80.1862 46.2337 79.4291 47.9623 78.5925 49.6529C77.6471 51.5633 76.6414 53.445 75.6955 55.3552C74.8584 57.0458 74.0807 58.7646 73.2505 60.4586C72.8469 61.2821 72.3833 62.0775 71.9243 62.9242ZM38.5992 73.5605C39.4096 73.7153 40.2182 73.8804 41.0309 74.0226C42.1974 74.2266 43.3727 74.3856 44.5337 74.615C46.0947 74.9235 47.6428 75.2936 49.2017 75.6124C50.195 75.8154 51.1997 75.964 52.1959 76.154C53.3914 76.3819 54.5815 76.6374 55.7795 76.8515C55.9 76.873 56.1163 76.7236 56.1888 76.5984C56.4351 76.1724 56.6322 75.7193 56.8565 75.2808C57.5729 73.8802 58.3009 72.4853 59.0093 71.0809C59.5284 70.0518 60.0078 69.0034 60.5337 67.9777C61.2372 66.6058 61.9875 65.2568 62.683 63.8811C63.495 62.2751 64.2519 60.6423 65.0646 59.0367C66.0847 57.0212 67.1444 55.025 68.173 53.0136C68.7641 51.8575 69.3278 50.688 69.9034 49.5243C70.5684 48.1801 71.2298 46.8343 71.8986 45.4919C72.4374 44.4103 72.9916 43.336 73.5267 42.2527C74.0364 41.2206 74.5185 40.1755 75.0333 39.146C76.0002 37.2123 76.9819 35.2857 77.9579 33.3551C77.3227 33.2568 76.7458 33.1675 76.1689 33.0784C75.8971 33.0364 75.7332 33.1045 75.6045 33.3892C75.1814 34.3252 74.7332 35.2516 74.2567 36.1627C73.5276 37.5569 72.749 38.9264 72.0246 40.3229C71.3423 41.6383 70.7083 42.9777 70.0432 44.3019C69.4414 45.5 68.8295 46.6934 68.2157 47.8857C67.9414 48.4185 67.6665 48.9519 67.3643 49.4695C67.0895 49.9401 66.3123 50.3372 65.9388 50.2172C64.8356 49.8629 64.4153 48.9689 64.9337 47.9794C65.9957 45.9518 67.0347 43.9126 68.0825 41.8779C68.5087 41.0501 68.933 40.2213 69.3798 39.3507C69.2005 39.3507 69.0581 39.3156 68.9434 39.356C67.2041 39.9679 65.4678 40.5746 63.8501 41.4819C62.1214 42.4516 60.5146 43.5712 59.0748 44.9124C58.3304 45.6059 57.6578 46.3727 56.9396 47.0937C56.4244 47.6108 55.8952 47.657 55.2688 47.2749C54.6874 46.9202 54.3865 46.2078 54.6367 45.6263C55.1569 44.4172 55.6804 43.2077 56.2603 42.0255C57.4273 39.6462 58.6335 37.2854 59.8221 34.9163C60.0828 34.3968 60.6546 34.069 61.256 34.1018C61.8421 34.1339 62.2856 34.4913 62.4935 35.0689C62.7655 35.8248 62.2948 36.4021 62.006 37.0131C61.5221 38.0365 60.9994 39.0423 60.5065 40.0284C62.1881 39.2017 63.8199 38.2959 65.5358 37.5851C67.233 36.8821 69.0068 36.3391 70.9522 36.3244C71.5494 35.144 72.1782 33.9012 72.8518 32.5699C61.1408 30.8629 49.4792 29.1631 37.8402 27.4666C37.5423 28.0506 37.2946 28.5812 37.0077 29.0905C35.91 31.0386 34.7957 32.9776 33.6956 34.9243C32.9266 36.2852 32.1649 37.6501 31.4103 39.0188C30.2853 41.0593 29.18 43.1102 28.047 45.1463C26.8709 47.2599 25.6624 49.3562 24.4861 51.4696C23.5883 53.0828 22.727 54.7154 21.8336 56.3309C21.2453 57.3949 20.623 58.4406 20.0266 59.5003C19.2871 60.8144 18.5628 62.1366 17.8244 63.4512C17.0976 64.7451 16.3563 66.0311 15.6318 67.3262C15.3292 67.867 15.0537 68.4224 14.7546 68.9925C18.322 69.6758 21.8505 70.3516 25.379 71.0274C24.4069 70.6693 24.1119 69.7146 24.5845 68.8867C24.9865 68.1823 25.3146 67.4378 25.6905 66.7186C25.8932 66.3306 26.1353 65.9626 26.3461 65.5784C26.9104 64.5497 27.4674 63.5171 27.9998 62.5369C27.3915 62.5369 26.8513 62.587 26.3239 62.5276C24.6257 62.3365 23.2506 60.843 23.2634 59.1519C23.2695 58.3466 23.3711 57.5287 23.5441 56.7406C23.9482 54.9011 24.9396 53.3383 26.1099 51.8781C26.5358 51.3468 27.5362 51.2224 28.0525 51.6098C28.6435 52.0532 28.8364 52.8564 28.4703 53.42C27.9986 54.1461 27.4555 54.8338 27.0463 55.5916C26.463 56.6718 25.9937 57.8035 26.1455 59.0801C26.2006 59.5437 26.576 59.9368 26.9547 59.7893C27.6703 59.5107 28.44 59.2557 29.0288 58.7961C30.4166 57.7129 31.4807 56.3477 32.2188 54.7468C32.354 54.4536 32.6142 54.1956 32.8682 53.9795C33.3106 53.6032 34.0808 53.6224 34.5327 53.9728C35.0868 54.4025 35.2738 55.0863 34.9781 55.6566C34.4538 56.6681 33.9361 57.6833 33.3877 58.6822C32.652 60.0224 31.8763 61.3417 31.1427 62.6829C30.4139 64.0153 29.725 65.3685 29.0012 66.7035C28.4887 67.6489 27.9226 68.5669 27.4265 69.5201C27.0334 70.2752 26.439 71.1811 25.379 71.0274C26.618 71.3375 28.0535 71.6078 29.2706 71.8539C30.2139 72.0446 31.1719 72.165 32.1231 72.3187C33.0893 72.4749 34.0577 72.6195 35.0203 72.795C36.2173 73.0133 37.4122 73.337 38.5992 73.5605ZM47.8989 77.5505C47.0473 77.3986 46.1948 77.2508 45.3442 77.0938C43.5786 76.7679 41.8136 76.4388 40.049 76.1076C38.7845 75.8702 37.5215 75.6252 36.257 75.3876C35.4629 75.2384 34.6631 75.1155 33.8733 74.9472C32.6894 74.6949 31.518 74.3834 30.3299 74.1537C29.4285 73.9794 28.5037 73.9233 27.5993 73.7613C25.9874 73.4725 24.3808 73.1537 22.7765 72.8264C22.0794 72.6841 21.3992 72.4617 20.701 72.3265C19.9978 72.1903 19.278 72.1381 18.5724 72.0119C17.1954 71.7657 15.8233 71.4936 14.4454 71.2315C15.0742 73.6317 15.7036 76.0344 16.3343 78.4421C29.8875 80.9125 43.4391 83.3826 57.0399 85.8616C56.9366 85.2388 56.8497 84.665 56.745 84.0943C56.4991 82.7538 56.2189 81.4188 56.0028 80.0738C55.8664 79.2242 55.6473 78.9977 54.7609 78.906C54.1463 78.8425 53.5377 78.7159 52.9293 78.6026C52.1009 78.4483 51.2729 78.2903 50.449 78.1147C49.6306 77.9403 48.8174 77.7422 47.8989 77.5505ZM69.2339 63.3879C69.5041 62.868 69.786 62.3535 70.0424 61.8272C71.0714 59.715 72.0872 57.5966 73.1183 55.4854C73.8655 53.9557 74.6347 52.4363 75.3834 50.9073C75.8413 49.9721 76.2681 49.0222 76.7287 48.0883C77.237 47.0576 77.7706 46.0389 78.2884 45.0127C78.8324 43.9345 79.3841 42.8595 79.9002 41.7685C79.9997 41.5581 79.9928 41.2744 79.9602 41.0343C79.8934 40.5433 79.7616 40.0612 79.6821 39.5714C79.5036 38.4711 79.3407 37.3684 79.1533 36.1493C79.0306 36.3322 78.9658 36.4097 78.9219 36.4972C78.3621 37.6108 77.8077 38.7271 77.2471 39.8404C76.6384 41.0492 76.0303 42.2583 75.4111 43.462C74.9076 44.4409 74.3685 45.4025 73.8803 46.3884C73.0199 48.1259 72.1938 49.8796 71.339 51.6198C70.7699 52.7784 70.1689 53.9218 69.5953 55.0783C69.0994 56.078 68.6412 57.0961 68.1306 58.0885C67.671 58.9819 67.1382 59.8395 66.6824 60.7347C66.1508 61.7788 65.668 62.8467 65.1635 63.9041C64.9439 64.3644 64.7309 64.828 64.5005 65.2831C64.1875 65.9015 63.8511 66.5086 63.5419 67.1288C63.0695 68.0761 62.6251 69.0368 62.1449 69.9802C61.4247 71.3948 60.6785 72.7967 59.9531 74.2089C59.3866 75.3118 58.8182 76.4144 58.2848 77.5328C58.0763 77.9702 57.863 78.3948 58.0424 78.9552C58.2903 79.7295 58.385 80.5511 58.5412 81.3532C58.7054 82.1964 58.8648 83.0405 59.0474 83.9942C59.5084 83.0354 59.907 82.1722 60.3353 81.3233C61.0812 79.845 61.8661 78.3853 62.5971 76.9C63.5887 74.8855 64.5317 72.848 65.5203 70.832C66.3889 69.0607 67.2911 67.3053 68.1794 65.5433C68.5271 64.8535 68.8773 64.1647 69.2339 63.3879ZM49.7004 21.9291C48.313 21.7025 46.9255 21.4758 45.5352 21.2487C44.6916 22.8595 43.88 24.4093 43.0553 25.9841C43.8109 26.0803 44.4807 26.1656 45.1176 26.2467C45.512 24.8676 46.1795 23.7962 47.626 23.3419C48.1826 23.1671 49.4623 23.489 49.8038 24.1346C50.2749 25.0255 50.3423 25.9573 49.9705 26.9822C50.194 27.0083 50.4029 27.0326 50.554 27.0502C50.7625 26.5134 50.9006 26.0177 51.1392 25.5737C51.5847 24.7447 52.2726 24.0492 53.2077 23.9172C54.5315 23.7304 55.5543 24.9148 55.2557 26.5115C55.1824 26.903 55.038 27.2818 54.9225 27.6797C55.1124 27.726 55.2551 27.7661 55.4002 27.7953C55.8768 27.8911 56.1042 27.7897 56.1353 27.2228C56.161 26.7547 56.3799 26.2719 56.6079 25.8442C57.1163 24.8908 59.1164 24.7662 59.8305 25.59C60.5786 26.453 60.6616 27.4282 60.4566 28.4913C60.7673 28.5941 60.8972 28.5253 61.0058 28.1448C61.1937 27.4859 61.4252 26.806 61.8017 26.2388C62.4801 25.2167 63.6128 24.9129 64.5247 25.4611C65.2278 25.8837 65.4927 26.6064 65.5039 27.3887C65.5124 27.9837 65.4387 28.5799 65.3993 29.212C65.524 29.212 65.6274 29.1849 65.7066 29.2164C66.1757 29.4033 66.2523 29.2372 66.3713 28.7715C66.6075 27.8466 66.9929 26.9976 68.0848 26.6295C69.3394 26.2065 70.5272 26.7785 70.7279 28.0725C70.8281 28.7187 70.8312 29.3792 70.8791 30.0441C71.8703 30.1895 72.9068 30.3416 73.9214 30.4905C74.7024 28.9813 75.4542 27.5286 76.2615 25.9686C75.4795 25.8465 74.7985 25.746 74.1197 25.6327C73.1124 25.4647 72.1088 25.2746 71.0994 25.1199C70.61 25.0449 70.1064 25.0576 69.6173 24.9811C67.54 24.6564 65.466 24.3115 63.3901 23.9774C61.9579 23.7468 60.5267 23.5094 59.0915 23.298C57.9312 23.1271 56.7648 22.996 55.6026 22.8368C54.78 22.7242 53.959 22.5995 53.1389 22.4703C52.0258 22.2949 50.9143 22.1101 49.7004 21.9291ZM81.4194 29.9324C81.9977 28.9494 82.576 27.9665 83.1473 26.9954C81.7724 26.8006 80.4608 26.6148 79.2216 26.4392C78.4231 27.9716 77.6682 29.4206 76.911 30.8737C78.0709 31.0804 79.2057 31.2826 80.4634 31.5068C80.7255 31.0703 81.0463 30.5361 81.4194 29.9324ZM82.1735 37.5142C82.3495 37.1931 82.5352 36.8767 82.6996 36.5501C83.1461 35.6633 83.5307 34.7411 84.0465 33.8954C84.3129 33.4587 84.4794 33.0996 84.3856 32.5778C84.2896 32.0436 84.3554 31.4832 84.3171 30.9365C84.2945 30.6132 84.2074 30.2941 84.1321 29.8778C83.8951 30.2196 83.7252 30.4377 83.5844 30.6725C82.933 31.7596 82.2748 32.8432 81.6521 33.946C81.4508 34.3026 81.1915 34.7316 81.234 35.0968C81.3534 36.1231 81.6162 37.1334 81.8311 38.1925C81.9366 37.9718 82.0291 37.7786 82.1735 37.5142Z" fill="#FEFEFE"/>
<path d="M38.5821 73.3547C38.4518 73.268 38.4121 73.2319 38.1734 72.947C37.802 72.5038 38.0156 71.8305 38.2293 71.3434C38.8064 70.028 38.7967 68.6592 38.6895 67.267C38.6307 66.5035 38.5096 65.7792 38.1132 65.1038C37.9362 64.8022 37.7553 64.6668 37.3974 64.6668C36.8054 64.6667 36.2136 64.5896 35.6211 64.5774C35.5154 64.5752 35.3643 64.7077 35.3053 64.8164C34.466 66.3618 33.6531 67.9216 32.8019 69.4604C32.4695 70.0612 32.0793 70.6341 31.6736 71.1893C31.4368 71.5132 30.5 71.6876 30.171 71.5336C29.7662 71.3441 29.4433 70.6576 29.4151 70.1823C29.3597 69.2479 30.0012 68.5932 30.3346 67.8278C30.7436 66.8889 31.363 66.0424 31.874 65.1461C32.2069 64.5622 32.5017 63.9568 32.8266 63.3682C33.1462 62.7893 33.4877 62.2226 33.8096 61.645C34.3375 60.6978 34.8566 59.7457 35.3809 58.7966C36.2769 57.1746 37.1683 55.55 38.0726 53.9326C38.9877 52.2958 39.9164 50.6666 40.8378 49.0333C40.8933 48.935 40.9457 48.833 40.9838 48.727C41.3867 47.6072 42.3992 47.2558 43.3551 47.9066C43.7277 48.1603 44.0166 48.8871 43.833 49.3079C43.5268 50.0096 43.1777 50.6947 42.8122 51.3682C42.3386 52.2409 41.8279 53.0935 41.3392 53.9582C40.5158 55.4153 39.6908 56.8715 38.8791 58.3351C38.3976 59.2034 37.9441 60.0872 37.4697 60.9594C37.3363 61.2049 37.1733 61.4344 36.9881 61.7277C37.8391 61.8262 38.6164 61.7188 39.3866 61.4211C40.719 60.9061 41.9068 60.2054 42.6152 58.9143C43.3225 57.6251 43.97 56.3034 44.6693 55.0096C45.426 53.6098 46.226 52.2332 46.9809 50.8324C47.4801 49.9059 47.9135 48.9441 48.4112 48.0168C49.3356 46.2945 50.3031 44.5951 51.2188 42.8683C51.858 41.6629 52.4878 40.4483 53.035 39.2C53.5397 38.0484 53.9718 36.8597 54.3455 35.6593C54.478 35.2336 54.4706 34.674 54.3035 34.2667C54.0335 33.6083 53.1111 33.4919 52.5075 34.041C51.9937 34.5082 51.5148 35.0565 51.1667 35.6537C50.2977 37.1449 49.5004 38.6783 48.6961 40.2062C47.9731 41.58 47.2921 42.9758 46.5672 44.3486C46.1646 45.1109 45.7101 45.846 45.2788 46.5932C44.7703 47.4742 43.2936 47.4476 42.8927 46.5375C42.6964 46.0919 42.7688 45.38 42.9948 44.9244C43.8393 43.2217 44.8023 41.5778 45.7086 39.9052C45.8772 39.5942 45.9579 39.2349 46.1326 38.9282C47.2976 36.8818 48.2309 34.7099 49.6177 32.7816C51.1058 30.7124 53.9549 30.301 55.9317 31.7099C56.8299 32.3499 57.219 33.3282 57.3281 34.402C57.4563 35.6631 57.0714 36.8143 56.552 37.9476C56.1805 38.7583 55.9506 39.6337 55.577 40.4433C54.9822 41.7325 54.3372 42.9996 53.6824 44.26C52.9737 45.6243 52.228 46.9694 51.5013 48.3244C50.7938 49.6434 50.0829 50.9607 49.3864 52.2855C48.5646 53.8487 47.7673 55.4249 46.9394 56.9848C46.2304 58.3204 45.5591 59.6828 44.7511 60.9576C43.8226 62.4223 42.3747 63.2903 40.8083 63.9618C41.5551 65.6781 41.8515 67.5065 41.6546 69.3601C41.5374 70.4625 41.1021 71.5324 40.7981 72.6136C40.5713 73.4201 40.0929 73.5092 39.353 73.5294C38.7691 73.4712 38.7573 73.4712 38.5821 73.3547Z" fill="#FEFEFE"/>
<path d="M60.8364 47.1757C62.281 47.6885 62.699 48.0593 63.7213 50.1066C64.3442 49.4986 65.2028 49.4997 65.8393 50.122C66.313 50.5852 66.2555 51.5192 65.8663 52.1249C65.3603 52.9124 64.9769 53.7705 64.5367 54.5962C63.6774 56.2081 62.8081 57.8153 61.9571 59.4311C61.487 60.3235 61.0554 61.2341 60.5888 62.1282C59.8957 63.4561 59.1846 64.7756 58.4855 66.1007C57.9196 67.1734 57.3644 68.2511 56.796 69.3226C56.5216 69.8398 56.218 70.343 55.9456 70.8611C55.5783 71.5598 55.2412 72.273 54.8664 72.968C54.5988 73.4642 54.3242 73.9627 53.991 74.4196C53.6697 74.8601 53.1532 75.0866 52.6074 74.9693C52.054 74.8504 51.552 74.5715 51.4664 73.8483C51.1082 73.9514 50.744 74.0082 50.4266 74.1557C49.0205 74.8091 47.6318 74.6589 46.3589 73.9351C45.6229 73.5165 45.086 72.8597 44.7268 72.0343C44.2171 70.8633 44.0638 69.68 44.1335 68.4515C44.1866 67.5155 44.1926 66.5563 44.4248 65.6549C44.8092 64.1632 45.356 62.709 45.8396 61.2405C46.4884 59.2701 47.5262 57.465 48.6381 55.7153C50.0166 53.5458 51.6049 51.4979 53.6186 49.8086C54.9076 48.7273 56.2639 47.7036 57.9826 47.251C58.9154 47.0053 59.8455 47.0122 60.8364 47.1757ZM48.366 62.7547C47.8195 64.2885 47.3958 65.8459 47.1508 67.4549C46.9608 68.7024 47.017 69.8977 47.536 71.0583C47.767 71.5749 48.2137 71.7809 48.8076 71.6095C49.3954 71.4398 50.0023 71.2639 50.5255 70.97C52.4289 69.9006 53.9525 68.4777 54.8821 66.5341C55.2746 65.7132 55.6875 64.9005 56.1166 64.0963C56.8762 62.6725 57.6537 61.2572 58.4267 59.8398C58.9884 58.8096 59.5952 57.7992 60.1041 56.7461C60.4107 56.1118 60.5828 55.4167 60.7875 54.7413C60.9208 54.3017 61.0696 53.852 61.0963 53.4008C61.1563 52.3876 61.147 51.3663 60.6109 50.4396C60.3554 49.9979 59.9002 49.6746 59.4013 49.825C58.62 50.0606 57.806 50.3466 57.161 50.8068C56.1413 51.5345 55.2259 52.4008 54.3097 53.2504C52.8193 54.6327 51.7184 56.3083 50.6906 57.9979C49.7884 59.4811 49.1375 61.1017 48.366 62.7547Z" fill="#FEFEFE"/>
<path d="M35.2039 38.9947C34.3771 40.428 33.4778 41.7801 32.8102 43.2431C32.0884 44.8248 31.9496 46.5158 32.8194 48.1341C33.0088 48.4865 33.869 48.7498 34.4587 48.4012C35.4447 47.8181 36.0853 46.9106 36.6275 45.9316C37.4112 44.5169 38.16 43.0814 38.9006 41.6424C39.1827 41.0943 39.3655 40.4917 39.6583 39.9507C39.9588 39.3954 40.559 39.1849 41.0982 39.355C41.6424 39.5268 42.0796 40.0841 42.0035 40.6883C41.9296 41.2752 41.7785 41.8686 41.5601 42.4168C40.7372 44.4818 39.702 46.437 38.484 48.2855C37.6432 49.5616 36.6463 50.6731 35.1849 51.2272C33.7176 51.7836 31.8315 51.3871 30.8542 50.0281C30.4034 49.4011 29.9691 48.7149 29.7294 47.9859C29.3059 46.6976 29.3365 45.3335 29.6409 44.0212C30.1393 41.8729 31.1317 39.9545 32.4247 38.1883C33.5333 36.674 34.5314 35.0694 35.7074 33.6141C36.7577 32.3142 37.9446 31.1205 39.1463 29.9616C40.0598 29.0806 41.1262 28.3824 42.3456 27.9938C43.2659 27.7005 44.8538 28.6824 45.2162 29.7288C45.4543 30.4162 45.6843 31.1153 45.547 31.8457C45.4057 32.598 45.2296 33.3533 44.9676 34.0684C44.7773 34.5882 44.0773 34.7965 43.5047 34.6342C43.0216 34.4972 42.6916 34.0381 42.7121 33.4657C42.7271 33.0479 42.8111 32.6331 42.8332 32.2152C42.855 31.8013 42.8379 31.3851 42.8379 30.9551C41.3332 31.1645 36.6032 36.7611 35.2039 38.9947Z" fill="#FEFEFE"/>
</svg>
